<?xml version="1.0" standalone="no"?>
<!DOCTYPE svg PUBLIC "-//W3C//DTD SVG 1.1//EN" "http://www.w3.org/Graphics/SVG/1.1/DTD/svg11.dtd" >
<svg xmlns="http://www.w3.org/2000/svg">
<metadata>Generated by IcoMoon</metadata>
<defs>
<font id="icomoon" horiz-adv-x="1024">
<font-face units-per-em="1024" ascent="960" descent="-64" />
<missing-glyph horiz-adv-x="1024" />
<glyph unicode="&#x20;" horiz-adv-x="512" d="" />
<glyph unicode="&#xe900;" glyph-name="time-sell" horiz-adv-x="910" d="M287.515 735.113c0-13.215 10.712-23.926 23.926-23.926s23.926 10.713 23.926 23.926h-47.852zM574.629 735.113c0-13.215 10.711-23.926 23.927-23.926 13.211 0 23.927 10.713 23.927 23.926h-47.854zM59.819 38.646v0zM61.483 422.847v0zM848.519 422.847v0zM156.648 690.999v0zM454.998 450.562h-23.926c0-6.348 2.521-12.431 7.008-16.921l16.918 16.921zM478.925 546.266c0 13.215-10.714 23.926-23.927 23.926s-23.926-10.713-23.926-23.926h47.853zM497.895 373.827c9.345-9.345 24.492-9.345 33.837 0s9.345 24.492 0 33.837l-33.837-33.837zM335.367 735.113v47.852h-47.852v-47.852h47.852zM574.629 782.965v-47.852h47.854v47.852h-47.854zM454.998 902.596c66.073 0 119.631-53.56 119.631-119.631h47.854c0 92.499-74.985 167.483-167.485 167.483v-47.852zM335.367 782.965c0 66.071 53.56 119.631 119.631 119.631v47.852c-92.499 0-167.483-74.985-167.483-167.483h47.852zM437.745 711.19h34.508v47.852h-34.508v-47.852zM472.253-6.595h-34.508v-47.854h34.508v47.854zM437.745-6.595c-107.578 0-185.677 0.059-244.187 8.406-57.856 8.254-92.047 24.065-115.327 52.114l-36.823-30.56c34.125-41.119 82.055-59.892 145.391-68.927 62.682-8.942 144.843-8.888 250.946-8.888v47.854zM37.966 427.254c-19.553-104.282-34.752-185.025-37.512-248.283-2.79-63.915 6.829-114.487 40.954-155.606l36.823 30.56c-23.28 28.054-32.519 64.574-29.971 122.958 2.577 59.047 16.913 135.82 36.739 241.557l-47.033 8.814zM825 418.439c19.824-105.736 34.161-182.51 36.741-241.557 2.545-58.384-6.691-94.903-29.971-122.958l36.819-30.56c34.127 41.119 43.747 91.689 40.956 155.606-2.761 63.257-17.957 144-37.512 248.283l-47.034-8.814zM472.253-54.449c106.105 0 188.269-0.054 250.946 8.888 63.336 9.035 111.269 27.808 145.391 68.927l-36.819 30.56c-23.283-28.049-57.475-43.86-115.327-52.114-58.512-8.348-136.611-8.406-244.191-8.406v-47.854zM472.253 711.19c76.587 0 131.836-0.042 174.668-5.334 42.17-5.21 69.414-15.231 91.149-33.27l30.56 36.823c-31.425 26.079-68.746 38.118-115.843 43.938-46.44 5.738-105.162 5.695-180.535 5.695v-47.852zM872.034 427.254c-13.89 74.084-24.669 131.805-38.869 176.392-14.4 45.22-33.11 79.684-64.535 105.763l-30.56-36.823c21.736-18.039 36.604-42.972 49.501-83.459 13.094-41.12 23.318-95.416 37.429-170.687l47.034 8.814zM437.745 759.043c-75.373 0-134.092 0.042-180.532-5.695-47.098-5.819-84.421-17.858-115.844-43.938l30.56-36.823c21.736 18.039 48.981 28.058 91.152 33.27 42.828 5.292 98.079 5.334 174.664 5.334v47.852zM84.999 418.439c14.113 75.272 24.337 129.568 37.432 170.687 12.893 40.489 27.762 65.421 49.498 83.459l-30.56 36.823c-31.424-26.079-50.136-60.545-64.534-105.763-14.198-44.587-24.977-102.308-38.868-176.392l47.033-8.814zM670.338 450.562c0-118.929-96.411-215.335-215.338-215.335v-47.854c145.355 0 263.188 117.833 263.188 263.19h-47.849zM455 235.227c-118.927 0-215.335 96.407-215.335 215.335h-47.852c0-145.357 117.833-263.19 263.188-263.19v47.854zM239.665 450.562c0 118.926 96.409 215.335 215.335 215.335v47.852c-145.355 0-263.188-117.833-263.188-263.187h47.852zM455 665.897c118.927 0 215.338-96.41 215.338-215.335h47.849c0 145.355-117.833 263.187-263.188 263.187v-47.852zM478.925 450.562v95.704h-47.853v-95.704h47.853zM438.080 433.641l59.815-59.813 33.837 33.837-59.818 59.813-33.835-33.837z" />
<glyph unicode="&#xe901;" glyph-name="percent" horiz-adv-x="1008" d="M820.937 217.56c-24.582 0-53.284-23.335-53.284-63.41 0-40.081 28.708-63.416 53.284-63.416 24.582 0 53.29 23.335 53.29 63.416 0 40.075-28.702 63.41-53.29 63.41zM641.725 154.151c0 99.515 75.384 189.342 179.212 189.342s179.224-89.822 179.224-189.342c0-99.521-75.397-189.35-179.224-189.35s-179.212 89.835-179.212 189.35zM203.060 805.268c-24.581 0-53.288-23.338-53.288-63.416 0-40.076 28.705-63.413 53.288-63.413 24.581 0 53.285 23.335 53.285 63.413 0 40.080-28.706 63.416-53.285 63.416zM23.84 741.852c0 99.518 75.392 189.347 179.219 189.347 103.83 0 179.217-89.831 179.217-189.347 0-99.518-75.389-189.344-179.217-189.344-103.826 0-179.219 89.823-179.219 189.344zM824.967 830.339c25.594-23.542 27.256-63.375 3.717-88.969l-618.124-671.97c-23.542-25.594-63.375-27.256-88.969-3.717-25.593 23.546-27.256 63.38-3.714 88.974l618.123 671.969c23.54 25.594 63.374 27.256 88.968 3.714z" />
<glyph unicode="&#xe902;" horiz-adv-x="827" d="M413.5 960c-226.216 0-409.6-204.933-409.6-435.201 0-228.466 130.731-476.795 334.699-572.132 47.548-22.223 102.256-22.223 149.805 0 203.97 95.337 334.696 343.665 334.696 572.132 0 230.269-183.38 435.201-409.598 435.201z" />
<glyph unicode="&#xe903;" horiz-adv-x="827" d="M413.541 422.404c70.692 0 128 57.308 128 128.001s-57.308 128-128 128c-70.693 0-128.001-57.308-128.001-128s57.308-128.001 128.001-128.001z" />
<glyph unicode="&#xe904;" horiz-adv-x="1333" d="M791.657 960h-250.311c-235.995 0-353.993 0-427.308-74.981s-73.314-195.66-73.314-437.019c0-241.357 0-362.039 73.314-437.023 73.314-74.977 191.312-74.977 427.308-74.977h250.311c235.998 0 353.997 0 427.308 74.977 73.312 74.984 73.312 195.666 73.312 437.023 0 241.359 0 362.039-73.312 437.019s-191.311 74.981-427.308 74.981z" />
<glyph unicode="&#xe905;" horiz-adv-x="1333" d="M1072.049 673.627c19.913 16.594 22.603 46.189 6.007 66.101s-46.189 22.603-66.103 6.010l-135.1-112.583c-58.382-48.652-98.912-82.321-133.134-104.331-33.13-21.305-55.59-28.457-77.189-28.457-21.591 0-44.056 7.152-77.182 28.457-34.221 22.009-74.755 55.678-133.138 104.331l-135.098 112.583c-19.913 16.594-49.508 13.903-66.101-6.010s-13.904-49.507 6.009-66.101l137.452-114.543c55.466-46.223 100.422-83.687 140.1-109.207 41.332-26.583 81.585-43.376 127.958-43.376 46.38 0 86.63 16.793 127.966 43.376 39.677 25.519 84.63 62.984 140.097 109.208l137.455 114.542z" />
<glyph unicode="&#xe906;" horiz-adv-x="890" d="M646.334 296.999v-201.334c0-83.554-67.447-151.001-151.001-151.001h-100.667c-83.554 0-151.001 67.447-151.001 151.001v201.334h402.669z" />
<glyph unicode="&#xe907;" horiz-adv-x="890" d="M193.332 699.668v100.667c0 83.554 67.447 151.001 151.001 151.001h201.334c83.554 0 151.001-67.447 151.001-151.001v-100.667h-503.336z" />
<glyph unicode="&#xe908;" horiz-adv-x="890" d="M747.001 699.668h-604.003c-100.667 0-151.001-50.334-151.001-151.001v-251.668c0-100.667 50.334-151.001 151.001-151.001h100.667v151.001h402.669v-151.001h100.667c100.667 0 151.001 50.334 151.001 151.001v251.668c0 100.667-50.334 151.001-151.001 151.001zM344.332 460.583h-151.001c-20.637 0-37.75 17.113-37.75 37.75s17.113 37.75 37.75 37.75h151.001c20.637 0 37.75-17.113 37.75-37.75s-17.113-37.75-37.75-37.75z" />
<glyph unicode="&#xe909;" horiz-adv-x="890" d="M382.083 498.334c0-20.637-17.113-37.75-37.75-37.75h-151.001c-20.637 0-37.75 17.113-37.75 37.75s17.113 37.75 37.75 37.75h151.001c20.637 0 37.75-17.113 37.75-37.75z" />
<glyph unicode="&#xe90a;" horiz-adv-x="890" d="M696.668 259.249h-503.336c-20.637 0-37.75 17.113-37.75 37.75s17.113 37.75 37.75 37.75h503.336c20.637 0 37.75-17.113 37.75-37.75s-17.113-37.75-37.75-37.75z" />
<glyph unicode="&#xe90b;" horiz-adv-x="948" d="M650.769 716.459l-32.821-58.806c-29.615-53.069-17.727-122.686 28.92-169.331 0 0 0 0 0 0 0.006-0.007 56.571-56.588-46.006-159.166-102.54-102.543-159.119-46.056-159.167-46.007-0.001 0-0.001 0-0.002 0-46.646 46.645-116.262 58.538-169.329 28.92l-58.806-32.821c-80.134-44.721-89.598-157.1-19.161-227.537 42.324-42.324 94.173-75.255 151.49-77.427 96.488-3.659 260.348 20.758 424.72 185.128 164.369 164.369 188.787 328.232 185.128 424.721-2.172 57.316-35.103 109.166-77.427 151.49-70.437 70.437-182.816 60.973-227.537-19.161z" />
<glyph unicode="&#xe90c;" glyph-name="login" horiz-adv-x="701" d="M186.531 875.969c45.609 45.609 107.468 71.231 171.969 71.231s126.36-25.623 171.971-71.231c45.609-45.609 71.229-107.468 71.229-171.969s-25.62-126.36-71.229-171.969c-45.611-45.609-107.47-71.231-171.971-71.231s-126.36 25.623-171.969 71.231c-45.609 45.609-71.231 107.468-71.231 171.969s25.623 126.36 71.231 171.969zM358.5 870.4c-44.132 0-86.456-17.531-117.663-48.737s-48.737-73.531-48.737-117.663c0-44.132 17.531-86.456 48.737-117.663s73.531-48.737 117.663-48.737c44.132 0 86.456 17.531 117.663 48.737s48.737 73.531 48.737 117.663c0 44.132-17.531 86.456-48.737 117.663s-73.531 48.737-117.663 48.737zM256.1 256c-44.132 0-86.456-17.531-117.663-48.737s-48.737-73.528-48.737-117.663v-102.4c0-21.207-17.192-38.4-38.4-38.4s-38.4 17.193-38.4 38.4v102.4c0 64.502 25.623 126.362 71.231 171.971s107.468 71.229 171.969 71.229h204.8c64.502 0 126.362-25.62 171.971-71.229s71.229-107.469 71.229-171.971v-102.4c0-21.207-17.193-38.4-38.4-38.4s-38.4 17.193-38.4 38.4v102.4c0 44.134-17.531 86.456-48.737 117.663s-73.531 48.737-117.663 48.737h-204.8z" />
<glyph unicode="&#xe90d;" glyph-name="basket" horiz-adv-x="906" d="M49.787 186.268c26.7 26.704 62.913 41.702 100.672 41.702s73.973-14.999 100.672-41.702c26.7-26.699 41.7-62.913 41.7-100.671s-15-73.972-41.7-100.671c-26.7-26.704-62.913-41.702-100.672-41.702s-73.973 14.999-100.672 41.702c-26.7 26.699-41.7 62.913-41.7 100.671s15 73.972 41.7 100.671zM150.459 150.313c-17.164 0-33.623-6.818-45.76-18.953s-18.954-28.599-18.954-45.761c0-17.162 6.818-33.625 18.954-45.761s28.597-18.953 45.76-18.953c17.164 0 33.623 6.818 45.76 18.953s18.954 28.599 18.954 45.761c0 17.162-6.818 33.625-18.954 45.761s-28.597 18.953-45.76 18.953zM619.277 186.268c26.699 26.704 62.913 41.702 100.671 41.702s73.972-14.999 100.671-41.702c26.704-26.699 41.702-62.913 41.702-100.671s-14.999-73.972-41.702-100.671c-26.699-26.704-62.913-41.702-100.671-41.702s-73.972 14.999-100.671 41.702c-26.704 26.699-41.702 62.913-41.702 100.671s14.999 73.972 41.702 100.671zM719.946 150.313c-17.162 0-33.625-6.818-45.761-18.953s-18.953-28.599-18.953-45.761c0-17.162 6.818-33.625 18.953-45.761s28.599-18.953 45.761-18.953c17.162 0 33.625 6.818 45.761 18.953s18.953 28.599 18.953 45.761c0 17.162-6.818 33.625-18.953 45.761s-28.599 18.953-45.761 18.953zM8.087 913.945c0 21.445 17.384 38.829 38.829 38.829h103.543c21.445 0 38.829-17.384 38.829-38.829v-685.973h530.659c21.444 0 38.829-17.385 38.829-38.829s-17.385-38.829-38.829-38.829h-569.488c-21.445 0-38.829 17.385-38.829 38.829v685.973h-64.715c-21.445 0-38.829 17.384-38.829 38.829zM111.729 813.169c1.528 21.39 20.106 37.492 41.496 35.963l724.8-51.772c10.748-0.767 20.693-5.966 27.454-14.351 6.767-8.386 9.744-19.205 8.222-29.87l-51.772-362.403c-2.733-19.129-19.119-33.336-38.44-33.336h-673.030c-21.445 0-38.829 17.385-38.829 38.829s17.384 38.829 38.829 38.829h639.352l41.117 287.812-683.238 48.803c-21.39 1.528-37.492 20.106-35.963 41.496z" />
<glyph unicode="&#xe90e;" glyph-name="search" horiz-adv-x="1008" d="M255.382 921.508c48.605 20.133 100.701 30.496 153.31 30.496s104.704-10.363 153.31-30.496c48.606-20.133 92.768-49.642 129.971-86.843 37.199-37.202 66.71-81.365 86.844-129.97 20.129-48.605 30.494-100.701 30.494-153.31s-10.365-104.704-30.494-153.31c-20.134-48.606-49.645-92.768-86.844-129.971-37.204-37.199-81.365-66.71-129.971-86.844-48.606-20.129-100.701-30.494-153.31-30.494s-104.705 10.365-153.31 30.494c-48.605 20.134-92.769 49.645-129.97 86.844-37.201 37.204-66.71 81.365-86.843 129.971s-30.496 100.701-30.496 153.31c0 52.609 10.363 104.705 30.496 153.31s49.642 92.769 86.843 129.97c37.202 37.201 81.365 66.71 129.97 86.843zM408.693 874.465c-42.427 0-84.44-8.357-123.637-24.592s-74.814-40.035-104.815-70.035c-30-30.001-53.799-65.616-70.035-104.815s-24.592-81.21-24.592-123.637c0-42.427 8.357-84.44 24.592-123.638s40.035-74.815 70.035-104.812c30.001-30.002 65.616-53.802 104.815-70.034 39.198-16.237 81.21-24.595 123.637-24.595s84.44 8.359 123.638 24.595c39.199 16.232 74.815 40.031 104.812 70.034 30.002 29.997 53.802 65.613 70.034 104.812 16.237 39.199 24.595 81.211 24.595 123.638s-8.359 84.44-24.595 123.637c-16.232 39.198-40.031 74.814-70.034 104.815-29.997 30-65.613 53.799-104.812 70.035s-81.211 24.592-123.638 24.592zM639.744 320.334c15.14 15.14 39.684 15.14 54.826 0l310.156-310.156c15.14-15.14 15.14-39.684 0-54.826s-39.684-15.14-54.826 0l-310.156 310.156c-15.14 15.14-15.14 39.684 0 54.826z" />
<glyph unicode="&#xe90f;" glyph-name="bottom-arrow" horiz-adv-x="2288" d="M142.816 915.299c46.006 53.674 126.812 59.89 180.488 13.884l812.696-696.598 812.696 696.598c53.676 46.006 134.481 39.79 180.487-13.884s39.79-134.48-13.883-180.486l-895.997-767.999c-47.936-41.085-118.669-41.085-166.605 0l-895.998 767.999c-53.673 46.006-59.889 126.812-13.883 180.486z" />
<glyph unicode="&#xe910;" glyph-name="left-arrow" horiz-adv-x="569" d="M533.888-42.248c37.886 32.475 42.274 89.514 9.8 127.401l-311.011 362.846 311.011 362.846c32.475 37.886 28.087 94.926-9.8 127.402-37.889 32.475-94.928 28.087-127.403-9.8l-361.411-421.646c-29.002-33.837-29.002-83.766 0-117.601l361.411-421.647c32.475-37.886 89.514-42.274 127.403-9.8z" />
<glyph unicode="&#xe911;" glyph-name="add-to-bascket" horiz-adv-x="1062" d="M229.697 799.998c1.613 22.588 21.233 39.592 43.821 37.978l692.245-49.446c63.266-4.518 109.425-61.74 100.453-124.529l-35.913-251.419c-7.697-53.867-53.83-93.882-108.244-93.882h-651.461c-22.646 0-41.004 18.359-41.004 41.004s18.358 41.004 41.004 41.004h651.461c13.602 0 25.138 10.005 27.063 23.47l35.913 251.421c2.242 15.697-9.294 30.002-25.111 31.132l-692.249 49.447c-22.588 1.613-39.592 21.233-37.978 43.821zM765.675 192.654c28.195 28.2 66.437 44.038 106.309 44.038s78.115-15.838 106.309-44.038c28.2-28.195 44.038-66.437 44.038-106.309s-15.838-78.115-44.038-106.309c-28.195-28.2-66.437-44.038-106.309-44.038s-78.115 15.838-106.309 44.038c-28.2 28.195-44.038 66.437-44.038 106.309s15.838 78.115 44.038 106.309zM871.984 154.685c-18.124 0-35.51-7.2-48.325-20.015s-20.015-30.2-20.015-48.325c0-18.124 7.2-35.51 20.015-48.325s30.2-20.015 48.325-20.015c18.124 0 35.51 7.2 48.325 20.015s20.015 30.2 20.015 48.325c0 18.124-7.2 35.51-20.015 48.325s-30.2 20.015-48.325 20.015zM153.357 948.315c72.703 36.352 158.244-16.516 158.244-97.8v-613.824h560.384c22.645 0 41.004-18.359 41.004-41.004s-18.359-41.004-41.004-41.004h-601.388c-22.646 0-41.004 18.359-41.004 41.004v654.827c0 20.321-21.385 33.538-39.561 24.449l-119.784-59.892c-20.255-10.127-44.885-1.917-55.013 18.338s-1.917 44.885 18.338 55.013l119.784 59.892zM164.285 192.654c28.196 28.2 66.436 44.038 106.311 44.038s78.116-15.838 106.311-44.038c28.196-28.195 44.036-66.437 44.036-106.309s-15.84-78.115-44.036-106.309c-28.196-28.2-66.436-44.038-106.311-44.038s-78.116 15.838-106.311 44.038c-28.196 28.195-44.036 66.437-44.036 106.309s15.84 78.115 44.036 106.309zM270.597 154.685c-18.125 0-35.507-7.2-48.323-20.015s-20.016-30.2-20.016-48.325c0-18.124 7.2-35.51 20.016-48.325s30.198-20.015 48.323-20.015c18.125 0 35.507 7.2 48.323 20.015s20.016 30.2 20.016 48.325c0 18.124-7.2 35.51-20.016 48.325s-30.198 20.015-48.323 20.015z" />
<glyph unicode="&#xe912;" horiz-adv-x="948" d="M487.807 890.198c-3.348 20.676-22.894 34.702-43.569 31.355-1.279-0.245-5.398-1.014-7.555-1.495-4.315-0.961-10.334-2.441-17.838-4.626-15.007-4.371-35.973-11.572-61.135-23.108-50.378-23.096-117.42-63.499-186.989-133.069s-109.973-136.612-133.069-186.99c-11.537-25.162-18.737-46.128-23.108-61.135-2.186-7.504-3.665-13.523-4.626-17.838-0.481-2.157-0.831-3.889-1.077-5.169l-0.291-1.578c-3.348-20.676 10.551-41.030 31.227-44.377 20.617-3.337 40.039 10.62 43.469 31.2 0.106 0.552 0.395 2.037 0.707 3.437 0.624 2.801 1.703 7.241 3.414 13.115 3.422 11.748 9.366 29.211 19.234 50.736 19.712 42.997 55.159 102.372 117.754 164.965s121.968 98.041 164.965 117.754c21.525 9.868 38.988 15.812 50.736 19.233 5.874 1.712 13.256 3.405 16.057 4.030 20.58 3.429 35.033 22.944 31.695 43.561z" />
<glyph unicode="&#xe913;" horiz-adv-x="948" d="M476.366 715.77c-5.754 20.14-26.745 31.801-46.884 26.048l10.418-36.466c-10.418 36.466-10.418 36.466-10.418 36.466l-0.073-0.021-0.078-0.022-0.168-0.049-0.392-0.117-1-0.311c-0.763-0.244-1.715-0.561-2.85-0.964-2.272-0.806-5.273-1.952-8.955-3.53-7.367-3.157-17.433-8.033-29.797-15.35-24.75-14.648-58.538-38.98-98.232-78.672s-64.024-73.481-78.672-98.232c-7.318-12.365-12.193-22.43-15.35-29.797-1.578-3.681-2.724-6.683-3.53-8.954-0.403-1.135-0.72-2.087-0.964-2.85l-0.311-1-0.117-0.392-0.049-0.168-0.022-0.078c0 0-0.021-0.073 36.444-10.492l-36.465 10.418c-5.754-20.14 5.908-41.13 26.047-46.884 19.968-5.705 40.775 5.711 46.735 25.536l0.187 0.545c0.269 0.76 0.827 2.256 1.763 4.441 1.872 4.365 5.264 11.506 10.908 21.043 11.275 19.051 31.638 47.835 67.032 83.23s64.178 55.758 83.23 67.032c9.537 5.644 16.678 9.037 21.043 10.908 2.185 0.936 3.681 1.494 4.441 1.763l0.545 0.187c19.825 5.961 31.241 26.766 25.536 46.734z" />
<glyph unicode="&#xe914;" glyph-name="telegram" horiz-adv-x="1093" d="M1086.643 927.951c-11.788 10.391-28.389 13.339-43.031 7.643l-1008.933-392.362c-15.498-6.027-25.986-20.621-26.756-37.23s8.321-32.113 23.194-39.55l208.632-104.315 106.597-319.794c4.944-14.831 17.713-25.698 33.148-28.2 15.434-2.506 30.983 3.763 40.365 16.269l139.073 185.433 245.986-245.986c10.707-10.707 26.349-14.831 40.945-10.787s25.887 15.626 29.561 30.318l224.205 896.826c3.813 15.245-1.198 31.343-12.986 41.734zM584.621 309.059c-0.311 0.319-0.627 0.639-0.95 0.95l-25.887 25.887 194.48 194.48c16.416 16.419 16.416 43.036 0 59.453s-43.035 16.418-59.451 0l-224.205-224.207c-16.421-16.416-16.421-43.035 0-59.451l30.268-30.272-98.138-130.85-86.731 260.195c-3.525 10.577-11.109 19.321-21.081 24.307l-139.387 69.692 844.822 328.542-186.493-745.97-227.245 227.245z" />
<glyph unicode="&#xe915;" glyph-name="aparat" horiz-adv-x="1008" d="M304.352 951.931c-76.721 1.954-146.649-50.041-164.583-127.773l-26.134-113.189c72.887 118.826 198.347 197.212 337.080 210.64l-113.191 26.134c-11.103 2.564-22.213 3.908-33.173 4.187zM503.212 848.498c-170.688-3.797-326.376-117.337-375.912-290.101-60.968-212.632 61.986-434.391 274.594-495.357 212.61-60.97 434.391 61.963 495.36 274.594 60.966 212.632-61.963 434.391-274.598 495.358-39.867 11.431-80.055 16.382-119.445 15.506zM775.231 846.657c118.827-72.888 197.214-198.347 210.642-337.079l26.135 113.187c20.517 88.837-34.75 177.262-123.587 197.757l-113.191 26.135zM422.555 716.813c6.237-0.482 12.523-1.615 18.771-3.405 50.015-14.323 78.925-66.487 64.603-116.502-14.326-50.012-66.536-78.921-116.548-64.599-50.015 14.322-78.901 66.489-64.554 116.501 12.554 43.761 54.056 71.384 97.729 68.005zM694.299 638.87c6.241-0.484 12.519-1.611 18.771-3.405 50.015-14.322 78.95-66.489 64.603-116.501-14.326-49.99-66.536-78.921-116.548-64.599s-78.925 66.486-64.599 116.501c12.531 43.761 54.083 71.393 97.774 68.004zM513.106 495.083c26.008-0.445 46.687-21.867 46.242-47.895-0.448-26.008-21.867-46.69-47.899-46.242-26.008 0.445-46.69 21.867-46.242 47.895 0.448 26.008 21.867 46.69 47.899 46.242zM344.66 445.025c6.241-0.484 12.519-1.569 18.771-3.36 50.012-14.322 78.945-66.532 64.599-116.548-14.347-50.012-66.557-78.9-116.546-64.553-50.013 14.322-78.947 66.489-64.6 116.501 12.533 43.761 54.086 71.337 97.776 67.959zM38.683 386.405l-26.134-113.187c-20.495-88.836 34.75-177.239 123.587-197.759l113.188-26.132c-118.802 72.885-197.212 198.345-210.64 337.077zM616.356 367.126c6.241-0.48 12.566-1.615 18.817-3.403 50.012-14.326 78.9-66.489 64.553-116.501s-66.486-78.921-116.498-64.599c-50.015 14.322-78.925 66.486-64.603 116.501 12.534 43.761 54.040 71.384 97.731 68.002zM910.966 185.060c-72.889-118.802-198.349-197.211-337.080-210.638l113.191-26.135c88.836-20.495 177.235 34.75 197.754 123.587l26.135 113.187z" />
<glyph unicode="&#xe916;" glyph-name="linkdin" horiz-adv-x="1008" d="M166.498 865.601c-19.096 0-37.409-7.586-50.912-21.088s-21.088-31.817-21.088-50.912v-691.204c0-19.095 7.586-37.407 21.088-50.912 13.503-13.5 31.817-21.086 50.912-21.086h691.203c19.095 0 37.411 7.586 50.912 21.086 13.505 13.505 21.090 31.817 21.090 50.912v691.204c0 19.096-7.586 37.409-21.090 50.912-13.5 13.503-31.817 21.088-50.912 21.088h-691.203zM54.492 905.607c29.706 29.706 69.995 46.395 112.006 46.395h691.203c42.012 0 82.3-16.688 112.005-46.395 29.709-29.706 46.397-69.995 46.397-112.006v-691.204c0-42.008-16.688-82.3-46.397-112.005-29.705-29.705-69.993-46.393-112.005-46.393h-691.203c-42.011 0-82.3 16.688-112.006 46.393s-46.395 69.997-46.395 112.005v691.204c0 42.011 16.688 82.3 46.395 112.006zM281.473 548.773c23.859 0 43.201-19.341 43.201-43.201v-288.003c0-23.856-19.341-43.201-43.201-43.201s-43.201 19.345-43.201 43.201v288.003c0 23.86 19.342 43.201 43.201 43.201zM281.473 721.573c23.859 0 43.201-19.342 43.201-43.201v-0.609c0-23.859-19.341-43.201-43.201-43.201s-43.201 19.342-43.201 43.201v0.609c0 23.859 19.342 43.201 43.201 43.201zM511.987 548.783c23.86 0 43.201-19.343 43.201-43.198v-288.003c0-23.86-19.341-43.201-43.201-43.201s-43.201 19.341-43.201 43.201v288.003c0 23.856 19.341 43.198 43.201 43.198zM515.179 502.388c29.709 29.705 69.997 46.395 112.009 46.395 42.008 0 82.3-16.69 112.005-46.395s46.393-69.997 46.393-112.005v-172.801c0-23.86-19.341-43.201-43.201-43.201s-43.201 19.341-43.201 43.201v172.801c0 19.095-7.586 37.407-21.086 50.912-13.505 13.505-31.817 21.090-50.912 21.090-19.099 0-37.411-7.586-50.912-21.090-13.505-13.505-21.090-31.817-21.090-50.912 0-23.86-19.341-43.201-43.201-43.201s-43.201 19.341-43.201 43.201c0 42.008 16.688 82.3 46.393 112.005z" />
<glyph unicode="&#xe917;" glyph-name="instagram" horiz-adv-x="1008" d="M281.697 865.602c-49.649 0-97.264-19.723-132.371-54.83s-54.83-82.723-54.83-132.371v-460.802c0-49.65 19.723-97.265 54.83-132.37 35.107-35.109 82.723-54.83 132.371-54.83h460.801c49.65 0 97.265 19.721 132.374 54.83 35.105 35.105 54.83 82.72 54.83 132.37v460.802c0 49.649-19.726 97.264-54.83 132.371-35.109 35.107-82.724 54.83-132.374 54.83h-460.801zM88.232 871.866c51.31 51.31 120.902 80.136 193.465 80.136h460.801c72.563 0 142.155-28.826 193.467-80.136 51.309-51.31 80.137-120.902 80.137-193.465v-460.802c0-72.563-28.827-142.155-80.137-193.463-51.309-51.313-120.904-80.137-193.467-80.137h-460.801c-72.563 0-142.155 28.823-193.465 80.137-51.31 51.309-80.136 120.9-80.136 193.463v460.802c0 72.563 28.826 142.155 80.136 193.465zM359.25 600.721c40.508 40.508 95.448 63.265 152.735 63.265s112.23-22.757 152.734-63.265c40.509-40.508 63.266-95.448 63.266-152.735s-22.758-112.23-63.266-152.734c-40.504-40.509-95.447-63.266-152.734-63.266s-112.228 22.758-152.735 63.266c-40.508 40.504-63.265 95.447-63.265 152.734s22.757 112.228 63.265 152.735zM511.986 577.586c-34.37 0-67.337-13.655-91.642-37.959s-37.959-57.271-37.959-91.642c0-34.375 13.655-67.337 37.959-91.641s57.271-37.96 91.642-37.96c34.375 0 67.337 13.656 91.641 37.96s37.96 57.266 37.96 91.641c0 34.37-13.656 67.337-37.96 91.642s-57.266 37.959-91.641 37.959z" />
<glyph unicode="&#xe918;" glyph-name="eye" horiz-adv-x="1087" d="M551.834 590.486c-78.98 0-142.744-63.763-142.744-142.744s63.763-142.744 142.744-142.744c78.98 0 142.744 63.763 142.744 142.744s-63.763 142.744-142.744 142.744zM326.936 447.743c0 124.352 100.546 224.898 224.898 224.898s224.898-100.546 224.898-224.898c0-124.352-100.546-224.898-224.898-224.898s-224.898 100.546-224.898 224.898zM49.431 603.318c123.111 193.521 303.74 310.652 502.409 310.652 198.679 0 379.314-117.142 502.43-310.679 28.302-44.379 41.078-101.081 41.078-155.292 0-54.22-12.775-110.935-41.102-155.318-123.109-193.524-303.737-310.652-502.406-310.652-198.678 0-379.315 117.144-502.426 310.679-28.307 44.379-41.077 101.081-41.077 155.291 0 54.221 12.774 110.936 41.094 155.319zM551.84 831.816c-163.829 0-321.051-96.46-433.108-272.619l-0.033-0.054c-17.88-28.012-28.207-68.331-28.207-111.144s10.327-83.13 28.207-111.143l0.033-0.054c112.056-176.158 269.279-272.619 433.108-272.619s321.050 96.46 433.109 272.619l0.033 0.054c17.885 28.012 28.211 68.331 28.211 111.143s-10.327 83.132-28.211 111.144l-0.033 0.054c-112.059 176.158-269.279 272.619-433.109 272.619z" />
<glyph unicode="&#xe919;" glyph-name="star" horiz-adv-x="1008" d="M461.806 830.036c19.956 39.686 40.125 47.778 50.091 47.778 9.904 0 29.947-7.992 49.671-47.646l82.472-164.944c8.788-17.861 23.469-33.128 38.633-44.318 15.229-11.236 34.151-20.717 53.664-23.968l149.523-24.842c0.005-0.001-0.005 0.001 0 0 41.735-6.96 55.432-23.407 58.6-33.263 3.141-9.778 1.66-31.007-28.395-60.859l-116.329-116.329c-15.111-15.111-25.217-35.318-30.795-54.789-5.578-19.49-7.663-41.899-3.023-62.598l33.327-144.101c12.44-53.988-0.094-73.416-6.314-77.954-6.281-4.575-28.775-10.527-76.543 17.68-0.009 0.009 0.009-0.005 0 0l-140.121 82.95c-0.005 0 0.005-0.005 0 0-19.4 11.493-42.757 16.153-64.136 16.153-21.416 0-44.763-4.674-64.259-16.017l-140.411-83.119c-47.383-28.123-69.899-22.143-76.292-17.479-6.366 4.645-18.903 24.196-6.509 77.757l33.333 144.134c4.639 20.694 2.553 43.104-3.026 62.594-5.574 19.471-15.682 39.678-30.794 54.789l-116.244 116.244c-29.857 29.858-31.43 51.145-28.281 61.007 3.138 9.827 16.722 26.248 58.419 33.202 0.006 0.001-0.006-0.001 0 0l149.629 24.86c19.317 3.28 38.089 12.795 53.195 23.996 15.063 11.168 29.729 26.421 38.511 44.273l82.405 164.809c0.005 0.009-0.005-0.009 0 0zM624.503 861.509c-24.805 49.856-63.578 86.612-112.607 86.612-48.976 0-87.871-36.694-112.911-86.512l-82.657-165.316c-2.476-5.055-8.396-12.25-17.315-18.864-8.889-6.591-17.512-10.197-23.040-11.149-0.016-0.003-0.033-0.006-0.049-0.008l-149.399-24.822c-53.908-8.985-99.182-35.22-113.855-81.169-14.662-45.916 6.967-93.531 45.543-132.107l116.244-116.244c4.575-4.579 9.701-13.195 12.915-24.425 3.195-11.16 3.465-21.285 2.033-27.777-0.007-0.033-0.013-0.061-0.020-0.094l-33.226-143.659c0 0 0-0.005 0 0-13.854-59.871-9.048-119.31 33.566-150.399 42.588-31.077 100.693-17.601 153.618 13.808l139.886 82.81c0.028 0.019 0.061 0.033 0.089 0.051 6.29 3.632 16.654 6.431 28.812 6.431 12.247 0 22.395-2.836 28.307-6.337l140.163-82.974c52.985-31.301 111.163-45.021 153.747-13.978 42.645 31.091 47.219 90.637 33.411 150.555l-33.233 143.693c-0.009 0.033-0.014 0.061-0.023 0.094-1.43 6.492-1.158 16.616 2.034 27.777 3.215 11.23 8.343 19.845 12.918 24.425l116.155 116.155c0.019 0.019 0.033 0.033 0.051 0.051 38.815 38.571 60.512 86.227 45.733 132.209-14.76 45.921-60.119 72.124-113.994 81.103l-149.523 24.842c0.009-0.001-0.005 0.001 0 0zM624.503 861.509c0.005-0.010-0.005 0.010 0 0z" />
<glyph unicode="&#xe91a;" horiz-adv-x="1062" d="M229.363 816.593c1.631 22.833 21.463 40.021 44.295 38.389l655.381-46.813c87.931-6.281 152.086-85.813 139.619-173.082l-24.93-174.524c-10.699-74.871-74.822-130.483-150.451-130.483h-622.572c-22.891 0-41.448 18.558-41.448 41.448s18.557 41.448 41.448 41.448h622.572c34.38 0 63.526 25.278 68.383 59.31l24.935 174.524c5.664 39.668-23.498 75.818-63.465 78.674l-655.379 46.813c-22.833 1.63-40.021 21.463-38.39 44.295z" />
<glyph unicode="&#xe91b;" horiz-adv-x="1062" d="M771.154 202.67c28.5 28.505 67.157 44.515 107.46 44.515s78.961-16.010 107.46-44.515c28.505-28.5 44.515-67.157 44.515-107.46s-16.010-78.961-44.515-107.46c-28.5-28.505-67.157-44.515-107.46-44.515s-78.961 16.010-107.46 44.515c-28.505 28.5-44.515 67.157-44.515 107.46s16.010 78.961 44.515 107.46zM878.616 164.289c-18.32 0-35.894-7.278-48.848-20.232s-20.232-30.527-20.232-48.848c0-18.32 7.278-35.894 20.232-48.848s30.527-20.232 48.848-20.232c18.32 0 35.894 7.278 48.848 20.232s20.232 30.527 20.232 48.848c0 18.32-7.278 35.894-20.232 48.848s-30.527 20.232-48.848 20.232z" />
<glyph unicode="&#xe91c;" horiz-adv-x="1062" d="M92.218 936.525c101.049 50.525 219.941-22.956 219.941-135.932v-553.409h566.456c22.89 0 41.448-18.558 41.448-41.448s-18.558-41.448-41.448-41.448h-607.904c-22.891 0-41.448 18.558-41.448 41.448v594.857c0 51.353-54.042 84.753-99.974 61.787l-61.098-30.549c-20.474-10.237-45.371-1.939-55.609 18.536s-1.938 45.371 18.536 55.609l61.098 30.549z" />
<glyph unicode="&#xe91d;" horiz-adv-x="1062" d="M163.248 202.67c28.501 28.505 67.156 44.515 107.463 44.515s78.962-16.010 107.463-44.515c28.501-28.5 44.513-67.157 44.513-107.46s-16.012-78.961-44.513-107.46c-28.501-28.505-67.156-44.515-107.463-44.515s-78.962 16.010-107.463 44.515c-28.501 28.5-44.513 67.157-44.513 107.46s16.012 78.961 44.513 107.46zM270.712 164.289c-18.321 0-35.891-7.278-48.846-20.232s-20.233-30.527-20.233-48.848c0-18.32 7.278-35.894 20.233-48.848s30.525-20.232 48.846-20.232c18.321 0 35.891 7.278 48.846 20.232s20.233 30.527 20.233 48.848c0 18.32-7.278 35.894-20.233 48.848s-30.525 20.232-48.846 20.232z" />
<glyph unicode="&#xe91e;" glyph-name="right-arrow" horiz-adv-x="535" d="M42.517 944.59c-26.836-23.003-29.944-63.406-6.942-90.243l348.299-406.349-348.299-406.348c-23.003-26.837-19.895-67.242 6.942-90.239 26.837-23.006 67.24-19.9 90.243 6.938l384 448c20.543 23.967 20.543 59.334 0 83.301l-384 448c-23.003 26.837-63.406 29.944-90.243 6.942z" />
<glyph unicode="&#xe91f;" glyph-name="mobile-menu" horiz-adv-x="1422" d="M1393.667 448c0-15.088-5.996-29.558-16.663-40.227s-25.139-16.662-40.226-16.662h-1251.556c-15.088 0-29.558 5.994-40.227 16.662s-16.662 25.139-16.662 40.227c0 15.088 5.994 29.558 16.662 40.227s25.139 16.662 40.227 16.662h1251.556c15.087 0 29.559-5.994 40.226-16.662s16.663-25.139 16.663-40.227zM85.222 846.222h1251.556c15.087 0 29.559 5.994 40.226 16.662s16.663 25.139 16.663 40.227c0 15.088-5.996 29.558-16.663 40.227s-25.139 16.662-40.226 16.662h-1251.556c-15.088 0-29.558-5.994-40.227-16.662s-16.662-25.139-16.662-40.227c0-15.088 5.994-29.558 16.662-40.227s25.139-16.662 40.227-16.662zM1336.778 49.778h-1251.556c-15.088 0-29.558-5.996-40.227-16.663s-16.662-25.139-16.662-40.226c0-15.087 5.994-29.559 16.662-40.226s25.139-16.663 40.227-16.663h1251.556c15.087 0 29.559 5.996 40.226 16.663s16.663 25.139 16.663 40.226c0 15.087-5.996 29.559-16.663 40.226s-25.139 16.663-40.226 16.663z" />
</font>
</defs>
</svg>
