<svg width="22" height="24" viewBox="0 0 22 24" fill="none" xmlns="http://www.w3.org/2000/svg">
<path d="M18.32 8.80002L2.46671 18.36C1.53337 18.92 0.333374 18.2534 0.333374 17.16V6.49335C0.333374 1.84002 5.36004 -1.06665 9.40004 1.25335L15.52 4.77335L18.3067 6.37335C19.2267 6.92002 19.24 8.25335 18.32 8.80002Z" fill="#16687E"/>
<path d="M19.12 16.6134L13.72 19.7334L8.33337 22.84C6.40003 23.9467 4.21337 23.72 2.6267 22.6C1.85337 22.0667 1.9467 20.88 2.76003 20.4L19.7067 10.24C20.5067 9.76004 21.56 10.2134 21.7067 11.1334C22.04 13.2 21.1867 15.4267 19.12 16.6134Z" fill="#25B0D5"/>
</svg>
