<svg width="24" height="24" viewBox="0 0 24 24" fill="none" xmlns="http://www.w3.org/2000/svg"><g clip-path="url(#a)" stroke-width="1.5" stroke-linecap="round" stroke-linejoin="round"><path d="m6 6 11.859.847a2 2 0 0 1 1.837 2.278l-.45 3.158A2 2 0 0 1 17.265 14H6" stroke="#16687E"/><path d="M15 19a2 2 0 1 0 4 0 2 2 0 0 0-4 0" stroke="#F99F1B"/><path d="M17 17H6V6.236a2 2 0 0 0-2.894-1.789L2 5" stroke="#F99F1B"/><path d="M4 19a2 2 0 1 0 4 0 2 2 0 0 0-4 0" stroke="#16687E"/></g><defs><clipPath id="a"><path fill="#fff" d="M0 0h24v24H0z"/></clipPath></defs></svg>